<svg width="112" height="112" viewBox="0 0 112 112" fill="none" xmlns="http://www.w3.org/2000/svg">
<g filter="url(#filter0_d_230_789)">
<rect x="24" y="16" width="64" height="64" rx="32" fill="white" fill-opacity="0.1" shape-rendering="crispEdges"/>
<rect x="24" y="16" width="64" height="64" rx="32" fill="url(#paint0_radial_230_789)" shape-rendering="crispEdges"/>
<rect x="24.5" y="16.5" width="63" height="63" rx="31.5" stroke="url(#paint1_linear_230_789)" shape-rendering="crispEdges"/>
<g filter="url(#filter1_d_230_789)">
<path d="M44.129 40.2581C44.3983 40.2581 44.619 40.06 44.6564 39.7798C45.0266 37.2836 45.367 36.9361 47.7681 36.6634C48.0449 36.6298 48.2581 36.3981 48.2581 36.129C48.2581 35.8562 48.0486 35.6321 47.7719 35.5909C45.3857 35.2584 45.0902 34.9669 44.6564 32.4746C44.6078 32.198 44.3946 32 44.129 32C43.856 32 43.6391 32.198 43.5942 32.4783C43.2314 34.9707 42.8911 35.3182 40.4937 35.5909C40.2094 35.6283 40 35.8525 40 36.129C40 36.3981 40.202 36.6223 40.4862 36.6634C42.8761 37.0034 43.1678 37.2911 43.5942 39.7835C43.6503 40.0637 43.8672 40.2581 44.129 40.2581Z" fill="url(#paint2_linear_230_789)"/>
<path d="M44.129 40.2581C44.3983 40.2581 44.619 40.06 44.6564 39.7798C45.0266 37.2836 45.367 36.9361 47.7681 36.6634C48.0449 36.6298 48.2581 36.3981 48.2581 36.129C48.2581 35.8562 48.0486 35.6321 47.7719 35.5909C45.3857 35.2584 45.0902 34.9669 44.6564 32.4746C44.6078 32.198 44.3946 32 44.129 32C43.856 32 43.6391 32.198 43.5942 32.4783C43.2314 34.9707 42.8911 35.3182 40.4937 35.5909C40.2094 35.6283 40 35.8525 40 36.129C40 36.3981 40.202 36.6223 40.4862 36.6634C42.8761 37.0034 43.1678 37.2911 43.5942 39.7835C43.6503 40.0637 43.8672 40.2581 44.129 40.2581Z" stroke="url(#paint3_linear_230_789)" stroke-width="0.181901"/>
</g>
<g filter="url(#filter2_d_230_789)">
<path d="M59.6129 60.9032C60.4208 60.9032 61.0828 60.3091 61.195 59.4684C62.3058 51.98 63.3268 50.9374 70.5302 50.1191C71.3605 50.0183 72 49.3232 72 48.5161C72 47.6978 71.3717 47.0252 70.5414 46.9019C63.3829 45.9042 62.4965 45.0298 61.195 37.5527C61.0491 36.7232 60.4095 36.129 59.6129 36.129C58.7939 36.129 58.1431 36.7232 58.0084 37.5639C56.9201 45.041 55.899 46.0835 48.7069 46.9019C47.8542 47.014 47.2258 47.6866 47.2258 48.5161C47.2258 49.3232 47.8317 49.9959 48.6845 50.1191C55.8542 51.1392 56.7293 52.0024 58.0084 59.4795C58.1767 60.3203 58.8275 60.9032 59.6129 60.9032Z" fill="url(#paint4_linear_230_789)"/>
<path d="M59.6129 60.9032C60.4208 60.9032 61.0828 60.3091 61.195 59.4684C62.3058 51.98 63.3268 50.9374 70.5302 50.1191C71.3605 50.0183 72 49.3232 72 48.5161C72 47.6978 71.3717 47.0252 70.5414 46.9019C63.3829 45.9042 62.4965 45.0298 61.195 37.5527C61.0491 36.7232 60.4095 36.129 59.6129 36.129C58.7939 36.129 58.1431 36.7232 58.0084 37.5639C56.9201 45.041 55.899 46.0835 48.7069 46.9019C47.8542 47.014 47.2258 47.6866 47.2258 48.5161C47.2258 49.3232 47.8317 49.9959 48.6845 50.1191C55.8542 51.1392 56.7293 52.0024 58.0084 59.4795C58.1767 60.3203 58.8275 60.9032 59.6129 60.9032Z" stroke="url(#paint5_linear_230_789)" stroke-width="0.545704"/>
</g>
<g filter="url(#filter3_d_230_789)">
<path d="M44.129 64C44.3983 64 44.619 63.802 44.6564 63.5217C45.0266 61.0256 45.367 60.6781 47.7681 60.4053C48.0449 60.3717 48.2581 60.14 48.2581 59.871C48.2581 59.5982 48.0486 59.374 47.7719 59.3329C45.3857 59.0003 45.0902 58.7089 44.6564 56.2165C44.6078 55.94 44.3946 55.7419 44.129 55.7419C43.856 55.7419 43.6391 55.94 43.5942 56.2202C43.2314 58.7126 42.8911 59.0601 40.4937 59.3329C40.2094 59.3703 40 59.5945 40 59.871C40 60.14 40.202 60.3642 40.4862 60.4053C42.8761 60.7453 43.1678 61.0331 43.5942 63.5254C43.6503 63.8057 43.8672 64 44.129 64Z" fill="url(#paint6_linear_230_789)"/>
<path d="M44.129 64C44.3983 64 44.619 63.802 44.6564 63.5217C45.0266 61.0256 45.367 60.6781 47.7681 60.4053C48.0449 60.3717 48.2581 60.14 48.2581 59.871C48.2581 59.5982 48.0486 59.374 47.7719 59.3329C45.3857 59.0003 45.0902 58.7089 44.6564 56.2165C44.6078 55.94 44.3946 55.7419 44.129 55.7419C43.856 55.7419 43.6391 55.94 43.5942 56.2202C43.2314 58.7126 42.8911 59.0601 40.4937 59.3329C40.2094 59.3703 40 59.5945 40 59.871C40 60.14 40.202 60.3642 40.4862 60.4053C42.8761 60.7453 43.1678 61.0331 43.5942 63.5254C43.6503 63.8057 43.8672 64 44.129 64Z" stroke="url(#paint7_linear_230_789)" stroke-width="0.181901"/>
</g>
</g>
<defs>
<filter id="filter0_d_230_789" x="0" y="0" width="112" height="112" filterUnits="userSpaceOnUse" color-interpolation-filters="sRGB">
<feFlood flood-opacity="0" result="BackgroundImageFix"/>
<feColorMatrix in="SourceAlpha" type="matrix" values="0 0 0 0 0 0 0 0 0 0 0 0 0 0 0 0 0 0 127 0" result="hardAlpha"/>
<feOffset dy="8"/>
<feGaussianBlur stdDeviation="12"/>
<feComposite in2="hardAlpha" operator="out"/>
<feColorMatrix type="matrix" values="0 0 0 0 0.355962 0 0 0 0 0.89536 0 0 0 0 0.966602 0 0 0 0.42 0"/>
<feBlend mode="normal" in2="BackgroundImageFix" result="effect1_dropShadow_230_789"/>
<feBlend mode="normal" in="SourceGraphic" in2="effect1_dropShadow_230_789" result="shape"/>
</filter>
<filter id="filter1_d_230_789" x="37.9091" y="29.9091" width="12.4399" height="12.4399" filterUnits="userSpaceOnUse" color-interpolation-filters="sRGB">
<feFlood flood-opacity="0" result="BackgroundImageFix"/>
<feColorMatrix in="SourceAlpha" type="matrix" values="0 0 0 0 0 0 0 0 0 0 0 0 0 0 0 0 0 0 127 0" result="hardAlpha"/>
<feOffset/>
<feGaussianBlur stdDeviation="1"/>
<feComposite in2="hardAlpha" operator="out"/>
<feColorMatrix type="matrix" values="0 0 0 0 0.0392157 0 0 0 0 0.486275 0 0 0 0 1 0 0 0 0.8 0"/>
<feBlend mode="normal" in2="BackgroundImageFix" result="effect1_dropShadow_230_789"/>
<feBlend mode="normal" in="SourceGraphic" in2="effect1_dropShadow_230_789" result="shape"/>
</filter>
<filter id="filter2_d_230_789" x="42.953" y="31.8562" width="33.3199" height="33.3198" filterUnits="userSpaceOnUse" color-interpolation-filters="sRGB">
<feFlood flood-opacity="0" result="BackgroundImageFix"/>
<feColorMatrix in="SourceAlpha" type="matrix" values="0 0 0 0 0 0 0 0 0 0 0 0 0 0 0 0 0 0 127 0" result="hardAlpha"/>
<feOffset/>
<feGaussianBlur stdDeviation="2"/>
<feComposite in2="hardAlpha" operator="out"/>
<feColorMatrix type="matrix" values="0 0 0 0 0.416669 0 0 0 0 0.772901 0 0 0 0 0.913737 0 0 0 1 0"/>
<feBlend mode="normal" in2="BackgroundImageFix" result="effect1_dropShadow_230_789"/>
<feBlend mode="normal" in="SourceGraphic" in2="effect1_dropShadow_230_789" result="shape"/>
</filter>
<filter id="filter3_d_230_789" x="37.9091" y="53.651" width="12.4399" height="12.4399" filterUnits="userSpaceOnUse" color-interpolation-filters="sRGB">
<feFlood flood-opacity="0" result="BackgroundImageFix"/>
<feColorMatrix in="SourceAlpha" type="matrix" values="0 0 0 0 0 0 0 0 0 0 0 0 0 0 0 0 0 0 127 0" result="hardAlpha"/>
<feOffset/>
<feGaussianBlur stdDeviation="1"/>
<feComposite in2="hardAlpha" operator="out"/>
<feColorMatrix type="matrix" values="0 0 0 0 0.0392157 0 0 0 0 0.486275 0 0 0 0 1 0 0 0 0.8 0"/>
<feBlend mode="normal" in2="BackgroundImageFix" result="effect1_dropShadow_230_789"/>
<feBlend mode="normal" in="SourceGraphic" in2="effect1_dropShadow_230_789" result="shape"/>
</filter>
<radialGradient id="paint0_radial_230_789" cx="0" cy="0" r="1" gradientUnits="userSpaceOnUse" gradientTransform="translate(56 48) rotate(47.4254) scale(33.1084 33.2449)">
<stop offset="0.510991" stop-opacity="0.23"/>
<stop offset="1" stop-color="#2FA7F2" stop-opacity="0.55"/>
</radialGradient>
<linearGradient id="paint1_linear_230_789" x1="87.9994" y1="16" x2="27.2638" y2="82.9604" gradientUnits="userSpaceOnUse">
<stop stop-color="#4FD5F6"/>
<stop offset="1" stop-color="#E6FAFF" stop-opacity="0"/>
</linearGradient>
<linearGradient id="paint2_linear_230_789" x1="44.129" y1="32" x2="44.129" y2="40.2581" gradientUnits="userSpaceOnUse">
<stop offset="0.404167" stop-color="#4FD5F6"/>
<stop offset="1" stop-color="white"/>
</linearGradient>
<linearGradient id="paint3_linear_230_789" x1="41.3144" y1="31.247" x2="47.6985" y2="39.5087" gradientUnits="userSpaceOnUse">
<stop offset="0.0001" stop-color="#37ABC7"/>
<stop offset="1" stop-color="white"/>
</linearGradient>
<linearGradient id="paint4_linear_230_789" x1="59.6129" y1="36.129" x2="59.6129" y2="60.9032" gradientUnits="userSpaceOnUse">
<stop offset="0.445833" stop-color="#4FD5F6"/>
<stop offset="1" stop-color="white"/>
</linearGradient>
<linearGradient id="paint5_linear_230_789" x1="51.1689" y1="33.8701" x2="70.3214" y2="58.6552" gradientUnits="userSpaceOnUse">
<stop offset="0.0001" stop-color="#37ABC7"/>
<stop offset="1" stop-color="white"/>
</linearGradient>
<linearGradient id="paint6_linear_230_789" x1="44.129" y1="55.7419" x2="44.129" y2="64" gradientUnits="userSpaceOnUse">
<stop offset="0.404167" stop-color="#4FD5F6"/>
<stop offset="1" stop-color="white"/>
</linearGradient>
<linearGradient id="paint7_linear_230_789" x1="41.3144" y1="54.989" x2="47.6985" y2="63.2507" gradientUnits="userSpaceOnUse">
<stop offset="0.0001" stop-color="#37ABC7"/>
<stop offset="1" stop-color="white"/>
</linearGradient>
</defs>
</svg>
